<svg id="svg" version="1.1" xmlns="http://www.w3.org/2000/svg" xmlns:xlink="http://www.w3.org/1999/xlink" width="400" height="711.1111111111111" viewBox="0, 0, 400,711.1111111111111"><g id="svgg"><path id="path0" d="M190.000 302.835 C 189.491 302.912,187.407 303.238,185.370 303.558 C 154.846 308.358,136.082 336.809,139.231 373.519 C 142.143 407.466,165.262 428.770,197.593 427.298 C 209.173 426.770,225.019 420.534,232.315 413.634 L 233.704 412.320 233.704 384.197 C 233.704 362.817,233.597 355.968,233.259 355.630 C 232.618 354.988,191.456 354.988,190.815 355.630 C 190.179 356.266,190.179 380.031,190.815 380.667 C 191.126 380.978,193.204 381.113,197.759 381.117 C 206.161 381.124,205.370 380.238,205.370 389.649 C 205.370 399.571,205.156 399.815,196.481 399.773 C 183.661 399.712,176.181 392.851,172.906 378.148 C 171.130 370.175,171.726 355.596,174.125 348.333 C 179.890 330.879,196.886 324.574,210.557 334.817 C 212.186 336.037,213.794 337.036,214.131 337.036 C 214.962 337.037,230.524 319.470,230.668 318.368 C 230.999 315.831,218.010 307.178,210.147 304.697 C 204.825 303.018,194.848 302.096,190.000 302.835 " stroke="none" fill="#ffffff" fill-rule="evenodd"></path><path id="path1" d="M0.000 355.556 L 0.000 711.111 200.000 711.111 L 400.000 711.111 400.000 355.556 L 400.000 0.000 200.000 0.000 L 0.000 0.000 0.000 355.556 M203.248 303.171 C 213.599 304.709,231.179 314.451,230.668 318.368 C 230.524 319.470,214.962 337.037,214.131 337.036 C 213.794 337.036,212.186 336.037,210.557 334.817 C 196.886 324.574,179.890 330.879,174.125 348.333 C 171.726 355.596,171.130 370.175,172.906 378.148 C 176.181 392.851,183.661 399.712,196.481 399.773 C 205.156 399.815,205.370 399.571,205.370 389.649 C 205.370 380.238,206.161 381.124,197.759 381.117 C 193.204 381.113,191.126 380.978,190.815 380.667 C 190.179 380.031,190.179 356.266,190.815 355.630 C 191.456 354.988,232.618 354.988,233.259 355.630 C 233.597 355.968,233.704 362.817,233.704 384.197 L 233.704 412.320 232.315 413.634 C 225.019 420.534,209.173 426.770,197.593 427.298 C 165.262 428.770,142.143 407.466,139.231 373.519 C 136.082 336.809,154.846 308.358,185.370 303.558 C 187.407 303.238,189.491 302.912,190.000 302.835 C 192.421 302.466,199.749 302.652,203.248 303.171 " stroke="none" fill="#555273" fill-rule="evenodd"></path></g></svg>